<svg width="145" height="31" viewBox="0 0 145 31" fill="none" xmlns="http://www.w3.org/2000/svg">
<path d="M22.9904 9.45447L5.04677 17.9281V0.778167H0.527344V30.1295H5.04677V22.6727L22.9904 14.1991V30.1966H27.5099V0.777344H22.9904V9.45447Z" fill="black"/>
<path d="M122.286 9.11658C122.421 6.60873 126.469 4.71023 130.719 4.71023C134.969 4.71023 139.151 6.6763 139.151 9.25171H143.873C143.873 3.82856 137.937 0.236328 130.786 0.236328C123.568 0.236328 117.7 3.76099 117.7 9.25171V11.7596L139.489 22.1308C139.084 24.5035 135.036 26.2657 130.922 26.2657C126.604 26.2657 122.355 24.2996 122.355 21.7242H117.633C117.633 27.1473 123.704 30.7396 130.922 30.7396C138.14 30.7396 144.211 27.2149 144.211 21.7242V19.4195L122.288 9.11575H122.287L122.286 9.11658Z" fill="black"/>
<path d="M84.6456 0.779297L73.5153 27.3516L62.385 0.779297H57.4609L69.8056 30.1306H77.2262L89.5709 0.779297H84.6464H84.6456Z" fill="black"/>
<path d="M62.317 30.1986L49.9723 0.779297H42.5517L30.207 30.1986H35.1311L36.143 27.8259L53.0748 19.8273L57.3921 30.1986H62.317ZM46.2622 3.62663L51.3889 15.828L38.6395 21.8609L46.2622 3.62663Z" fill="black"/>
<path d="M116.824 30.1986L104.547 0.779297H97.1259L84.7812 30.1306H89.7054L90.7172 27.7579L107.649 19.7593L111.966 30.1306H116.823V30.1982L116.824 30.1986ZM100.836 3.62663L105.963 15.828L93.2137 21.8609L100.836 3.62663Z" fill="black"/>
</svg>
